<svg width="855" height="133" xmlns="http://www.w3.org/2000/svg"><defs><linearGradient x1="36.999%" y1="91.681%" x2="55.329%" y2="-2.216%" id="linearGradient-1"><stop stop-color="#3FA9F5" offset="27.18%"/><stop stop-color="#3F63F5" offset="100%"/></linearGradient><linearGradient x1="31.001%" y1="98.979%" x2="69.623%" y2="-.596%" id="linearGradient-2"><stop stop-color="#3FA9F5" offset="27.18%"/><stop stop-color="#3F63F5" offset="100%"/></linearGradient></defs><g id="Page-1" stroke="none" stroke-width="1" fill="none" fill-rule="evenodd"><g id="logo-full"><path id="Path" fill="#012354" fill-rule="nonzero" d="M810.89 65.96l-20.04 28.68-15.03-21.5-5.02-7.18-.08-.11.09-.13 5.02-7.2L790.85 37l20.03 28.72-.08.11zm4.97-7.44l-20.01-28.69 19.22-27.56 39.76-.02zm39.03 70.85l-39.76.02-19.28-27.59 20.02-28.66zM405.02.97L405 32.81l-38.04-.02-.05 97.54-31.85-.02.05-97.53-38.04-.02.01-31.85zm249.13 31.97v19.64l47.41.02-.02 31.85-47.41-.02-.01 16.16 47.41.02-.01 31.85-79.27-.04.06-131.35 79.27.04-.01 31.86z"/><path id="Path" d="M778.5 129.39h-.01"/><path d="M263.95 88.93c11.02-8.73 18.11-22.25 18.11-37.41.02-26.39-21.38-47.78-47.75-47.79l-47.77-.03-.06 127.39 31.85.01.01-31.83 11.27-.1 15.54 31.95 39.8.01-21-42.2zm-29.67-22.37l-15.08-.01.02-30.14 15.07.01c8.32 0 15.06 6.75 15.06 15.08-.01 8.32-6.76 15.06-15.07 15.06z" id="Shape" fill="#012354" fill-rule="nonzero"/><path id="Path" fill="#012354" fill-rule="nonzero" d="M597.33 1.07l-.01 31.84-37.77-.02-.04 97.54-31.85-.02.04-97.54-38.31-.02.01-31.83z"/><path id="Rectangle" fill="#012354" fill-rule="nonzero" d="M432.21.99h31.85v129.37h-31.85z"/><path id="Path" fill="#012354" fill-rule="nonzero" d="M125.2 129.05l-.25-.53.17.53-56.47-38.66-.41-.28-7.48-5.13-.04-.02-15.71-10.75 21.06.01 32.19.02-10.93-22.8 5.09-10.3 13.39-27.2 57.87 115.13z"/><path id="Path" fill="#FFF" fill-rule="nonzero" d="M810.97 65.85l-.08.11-20.04 28.68-24.29 34.74-29.76-.01 39.02-56.23 5.07-7.31-5.06-7.31-38.97-56.26 29.76.01L790.85 37l20.03 28.72z"/><path id="Path" fill="url(#linearGradient-1)" fill-rule="nonzero" d="M810.97 65.85l-.08.11-20.04 28.68-24.29 34.74v.01l-39.76-.02 44-63.41.09-.13-.08-.11-43.95-63.47 10 .01 29.76.01L790.85 37l20.03 28.72z"/><path id="Path" fill="url(#linearGradient-2)" fill-rule="nonzero" d="M100.78 3.81l-.03.03v.03L82.4 41.14 68.13 70l-33.84-.02 24.33 19.49-19.55 39.51-38.47-.02L63.62 3.82l.03-.03z"/></g></g></svg>